<?xml version="1.0" encoding="UTF-8" standalone="no"?>
<!-- Created with Inkscape (http://www.inkscape.org/) -->

<svg
   width="512"
   height="512"
   viewBox="0 0 512 512"
   version="1.1"
   id="svg5"
   xmlns="http://www.w3.org/2000/svg"
   xmlnsSvg="http://www.w3.org/2000/svg">
  <defs
     id="defs2" />
  <g
     id="layer1">
    <path
       style="fill:#000000;stroke-width:1.85213"
       d="m 249.17334,78.845129 c 7.56343,3.921348 27.47715,24.129411 29.54209,29.978771 4.33083,12.26786 3.03069,13.94171 -53.55612,68.95029 l -53.41209,51.92242 128.54799,-1.16956 c 141.08366,-1.28361 134.04292,-1.7838 139.92423,9.94043 3.9454,7.86502 4.42621,37.45215 0.73848,45.44122 -5.49724,11.90914 1.5235,11.18044 -139.527,14.48185 l -128.51776,3.00806 55.14079,50.19277 c 67.19007,61.16084 66.23516,59.35396 43.89646,83.05996 -12.98773,13.78268 -18.4933,17.15578 -28.26083,17.31451 -6.83803,0.11112 -10.01658,-2.70271 -98.42609,-87.13215 -61.249446,-58.49214 -91.796247,-88.9067 -92.683992,-92.28274 -0.72831,-2.76965 -0.802258,-7.31997 -0.164329,-10.11182 0.777575,-3.40311 30.319959,-34.79419 89.636421,-95.24565 87.42487,-89.097661 88.56509,-90.170321 95.91748,-90.234554 4.09246,-0.0358 9.13438,0.81305 11.20427,1.886193 z"
       id="path1104" />
  </g>
</svg>
