<?xml version="1.0" encoding="UTF-8" standalone="no"?>
<!-- Created with Inkscape (http://www.inkscape.org/) -->

<svg
   width="512"
   height="512"
   viewBox="0 0 512 512"
   version="1.1"
   id="svg5"
   xmlns="http://www.w3.org/2000/svg"
   xmlnsSvg="http://www.w3.org/2000/svg">
  <defs
     id="defs2" />
  <g
     id="layer1">
    <path
       style="fill:#000000;stroke-width:1.85213"
       d="m 432.68336,275.02867 c -4.30366,7.35262 -25.50534,26.20496 -31.4528,27.96755 -12.4736,3.69668 -14.07865,2.3125 -66.11617,-57.018 L 285.99635,189.97637 280.5791,318.4155 c -5.94553,140.96417 -5.08532,133.95829 -17.09544,139.23127 -8.05681,3.5373 -37.62972,2.5018 -45.41938,-1.59036 -11.6119,-6.10011 -11.24381,0.94875 -7.31513,-140.08567 l 3.57961,-128.50312 -52.95162,52.49711 c -64.522557,63.96869 -62.669139,63.1076 -85.199638,39.58382 -13.099244,-13.67674 -16.185871,-19.34788 -15.844024,-29.11071 0.239319,-6.83475 3.212289,-9.86498 92.059932,-93.83324 61.55303,-58.172584 93.49251,-87.121195 96.9096,-87.834826 2.80332,-0.58547 7.35145,-0.426217 10.10696,0.353896 3.3588,0.950889 33.19527,32.06259 90.52868,94.39799 84.50206,91.87438 85.5149,93.06805 85.2024,100.41408 -0.1739,4.08892 -1.27992,9.08073 -2.45769,11.09293 z"
       id="path1104" />
  </g>
</svg>
