<?xml version="1.0" encoding="UTF-8" standalone="no"?>
<!-- Created with Inkscape (http://www.inkscape.org/) -->

<svg
   width="512"
   height="512"
   viewBox="0 0 512 512"
   version="1.1"
   id="svg5"
   xmlns="http://www.w3.org/2000/svg"
   xmlnsSvg="http://www.w3.org/2000/svg">
  <defs
     id="defs2" />
  <g
     id="layer1">
    <path
       style="fill:#000000;stroke-width:1.85213"
       d="m 243.02795,449.52913 c -7.49872,-4.04373 -27.08144,-24.57271 -29.05107,-30.45485 -4.13091,-12.3366 -2.80375,-13.9891 54.66943,-68.07094 l 54.24873,-51.04767 -128.55003,-0.91938 C 53.259114,298.02725 60.29081,298.64178 54.600779,286.82353 c -3.817067,-7.92809 -3.817067,-37.51912 0,-45.44721 5.690029,-11.81826 -1.34163,-11.20373 139.743891,-12.21276 l 128.54968,-0.91938 -54.31793,-51.08212 c -66.18739,-62.24454 -65.26197,-60.42239 -42.54102,-83.762273 13.20997,-13.56982 18.76962,-16.85301 28.53844,-16.85301 6.83894,0 9.97134,2.86511 96.99728,88.719983 60.29092,59.47966 90.33948,90.38656 91.17225,93.77658 0.68321,2.78112 0.68321,7.33204 0,10.11316 -0.83277,3.39002 -30.88133,34.29692 -91.17225,93.77656 -88.86107,87.66533 -90.01857,88.71932 -97.37103,88.66407 -4.0925,-0.0307 -9.11996,-0.96136 -11.17214,-2.068 z"
       id="path1104" />
  </g>
</svg>
