<?xml version="1.0" encoding="UTF-8" standalone="no"?>
<!-- Created with Inkscape (http://www.inkscape.org/) -->

<svg
   width="512"
   height="512"
   viewBox="0 0 512 512"
   version="1.1"
   id="svg5"
   xmlns="http://www.w3.org/2000/svg"
   xmlnsSvg="http://www.w3.org/2000/svg">
  <defs
     id="defs2" />
  <g
     id="layer1">
    <path
       style="fill:#000000;stroke-width:1.85213"
       d="m 62.150841,260.1819 c 4.036343,-7.50269 24.546025,-27.10563 30.426224,-29.08104 12.332535,-4.14306 13.986345,-2.81752 68.124745,54.60237 l 51.10106,54.19844 0.7928,-128.55086 c 0.87012,-141.086819 0.26251,-134.054535 12.07515,-139.756195 7.92433,-3.824884 37.51535,-3.854005 45.4472,-0.04476 11.82384,5.678387 11.20239,-1.352658 12.35035,139.7318 l 1.04595,128.54871 51.02862,-54.3682 c 62.17934,-66.24865 60.35809,-65.32143 83.72034,-42.62348 13.58282,13.19661 16.87149,18.75302 16.8811,28.52184 0.007,6.83893 -2.85529,9.97416 -88.62442,97.08459 -59.42027,60.34946 -90.29757,90.42843 -93.68677,91.26454 -2.78044,0.68595 -7.33136,0.69043 -10.11315,0.01 -3.39084,-0.82943 -34.32732,-30.84754 -93.86629,-91.07986 -87.752785,-88.77472 -88.807916,-89.93118 -88.75991,-97.28369 0.02667,-4.09253 0.952387,-9.12091 2.057001,-11.17417 z"
       id="path1104" />
  </g>
</svg>
