<?xml version="1.0" encoding="UTF-8" standalone="no"?>
<!-- Created with Inkscape (http://www.inkscape.org/) -->

<svg
   width="512"
   height="512"
   viewBox="0 0 512 512"
   version="1.1"
   id="svg5"
   xmlns="http://www.w3.org/2000/svg"
   xmlnsSvg="http://www.w3.org/2000/svg">
  <defs
     id="defs2" />
  <g
     id="layer1">
    <path
       style="fill:#000000;stroke-width:0.723696"
       d="m 210.89428,385.5307 c -0.5976,-0.39286 -3.12382,-0.71928 -5.61382,-0.72536 -2.52788,-0.006 -4.52728,-0.33038 -4.52728,-0.7341 0,-0.39767 -1.46683,-0.72304 -3.25964,-0.72304 -1.7928,0 -3.25964,-0.32536 -3.25964,-0.72303 0,-0.39767 -0.98231,-0.72303 -2.18292,-0.72303 -1.2006,0 -2.74893,-0.28175 -3.44073,-0.62612 -1.7729,-0.88252 -5.99694,-2.34007 -8.13926,-2.80855 -0.996,-0.2178 -1.99216,-0.67129 -2.21367,-1.00778 -0.22152,-0.33647 -1.2809,-0.6843 -2.35419,-0.77296 -1.07328,-0.0887 -1.95142,-0.41562 -1.95142,-0.72655 0,-0.31094 -0.65193,-0.56534 -1.44873,-0.56534 -0.7968,0 -1.44873,-0.32536 -1.44873,-0.72303 0,-0.39767 -0.8149,-0.72303 -1.81091,-0.72303 -0.996,0 -1.81091,-0.32537 -1.81091,-0.72304 0,-0.39766 -0.65192,-0.72303 -1.44872,-0.72303 -0.7968,0 -1.44873,-0.32536 -1.44873,-0.72303 0,-0.39767 -0.46253,-0.72303 -1.02785,-0.72303 -1.29262,0 -5.48071,-2.34553 -5.48685,-3.07289 -0.002,-0.29825 -0.65651,-0.54227 -1.45331,-0.54227 -0.7968,0 -1.44872,-0.32537 -1.44872,-0.72305 0,-0.39765 -0.48895,-0.72303 -1.08655,-0.72303 -0.5976,0 -1.08655,-0.32536 -1.08655,-0.72303 0,-0.39766 -0.5027,-0.72302 -1.11712,-0.72302 -0.61441,0 -1.51081,-0.32047 -1.992,-0.71214 -4.15693,-3.38364 -5.54017,-4.3491 -6.23109,-4.3491 -0.44048,0 -0.80088,-0.32536 -0.80088,-0.72303 0,-0.39767 -0.36923,-0.72303 -0.82049,-0.72303 -0.45127,0 -1.34767,-0.57298 -1.992,-1.2733 -0.64434,-0.70032 -2.39917,-2.18505 -3.89964,-3.2994 -3.6892,-2.73987 -17.63284,-16.61671 -21.1965,-21.09497 -1.58227,-1.98834 -3.12132,-3.72361 -3.42012,-3.85617 -0.2988,-0.13256 -0.54327,-0.70195 -0.54327,-1.26531 0,-0.56337 -0.32596,-1.0243 -0.72437,-1.0243 -0.3984,0 -0.72436,-0.48804 -0.72436,-1.08455 0,-0.5965 -0.32596,-1.08455 -0.72436,-1.08455 -0.3984,0 -0.72437,-0.34859 -0.72437,-0.77468 0,-0.42607 -0.40745,-1.2282 -0.90545,-1.78248 -2.14957,-2.39257 -2.71637,-3.21044 -2.71637,-3.91961 0,-0.41446 -0.32596,-0.75356 -0.72436,-0.75356 -0.3984,0 -0.72437,-0.65073 -0.72437,-1.44606 0,-0.79534 -0.32596,-1.44607 -0.72436,-1.44607 -0.3984,0 -0.72436,-0.62361 -0.72436,-1.38582 0,-0.76219 -0.27158,-1.49425 -0.60351,-1.62682 -0.928327,-0.37073 -5.91577,-9.62367 -5.91577,-10.97523 0,-0.65769 -0.325963,-1.19581 -0.724364,-1.19581 -0.3984,0 -0.724364,-0.81342 -0.724364,-1.80759 0,-0.99417 -0.325964,-1.80759 -0.724363,-1.80759 -0.398401,0 -0.724365,-0.63152 -0.724365,-1.40339 0,-0.77185 -0.325963,-1.60448 -0.724364,-1.85025 -0.3984,-0.24577 -0.724364,-1.18684 -0.724364,-2.09127 0,-0.90442 -0.228349,-1.87233 -0.507439,-2.1509 -0.686943,-0.68569 -3.090398,-8.45871 -3.103711,-10.03773 -0.0059,-0.69592 -0.336634,-1.2653 -0.735034,-1.2653 -0.398401,0 -0.724364,-1.46415 -0.724364,-3.25366 0,-1.7895 -0.325964,-3.25364 -0.724365,-3.25364 -0.402427,0 -0.724363,-1.92809 -0.724363,-4.3382 0,-2.38601 -0.290781,-4.3382 -0.646184,-4.3382 -0.665668,0 -1.638656,-13.09416 -1.638656,-22.0525 0,-8.95833 0.972988,-22.0525 1.638656,-22.0525 0.355403,0 0.646184,-1.7895 0.646184,-3.97668 0,-2.18718 0.325964,-3.97668 0.724363,-3.97668 0.398401,0 0.724365,-1.46414 0.724365,-3.25365 0,-1.7895 0.325963,-3.25365 0.724364,-3.25365 0.3984,0 0.724364,-0.74455 0.724364,-1.65457 0,-1.73058 2.309931,-8.84549 3.141147,-9.67518 0.264371,-0.26388 0.480673,-1.21977 0.480673,-2.12419 0,-0.90442 0.325964,-1.84549 0.724364,-2.09126 0.398401,-0.24577 0.724364,-1.07839 0.724364,-1.85026 0,-0.77187 0.325964,-1.4034 0.724365,-1.4034 0.398399,0 0.724363,-0.94897 0.724363,-2.10884 0,-1.15986 0.296106,-2.2173 0.658013,-2.34985 0.361899,-0.13256 0.769354,-0.89174 0.905455,-1.68708 0.136093,-0.79534 0.429758,-1.60874 0.652586,-1.80758 0.880298,-0.78552 4.303224,-7.47187 4.303224,-8.40595 0,-0.54641 0.32596,-0.99348 0.72436,-0.99348 0.3984,0 0.72437,-0.66993 0.72437,-1.48873 0,-0.81881 0.32596,-1.28765 0.72436,-1.04188 0.3984,0.24577 0.72436,0.0945 0.72436,-0.33629 0,-0.70558 3.97917,-7.0348 5.79244,-9.21338 0.39976,-0.4803 0.72684,-1.06447 0.72684,-1.29818 0,-0.23369 0.81491,-1.23831 1.81091,-2.23248 0.996,-0.99417 1.81091,-2.07399 1.81091,-2.39959 0,-0.32563 1.62982,-2.24472 3.62182,-4.26468 1.992,-2.01995 3.64852,-3.93496 3.68115,-4.25557 0.0327,-0.32063 1.83291,-2.20978 4.00062,-4.19812 2.16771,-1.98834 6.16303,-5.73003 8.87849,-8.31487 2.71546,-2.58484 5.39719,-4.80546 5.95939,-4.9347 0.5622,-0.12925 1.13084,-0.53595 1.26364,-0.9038 0.1328,-0.36784 0.72247,-0.6688 1.31038,-0.6688 0.58792,0 0.86748,-0.32536 0.62126,-0.72303 -0.24623,-0.39767 -0.0887,-0.72303 0.35,-0.72303 0.73472,0 1.46017,-0.48782 3.84022,-2.58226 0.48418,-0.42607 1.04331,-0.76118 1.24251,-0.74469 0.1992,0.0165 1.88775,-1.01771 3.75233,-2.29822 1.86458,-1.28051 3.73887,-2.3282 4.1651,-2.3282 0.42621,0 0.77493,-0.32536 0.77493,-0.72303 0,-0.39767 0.65193,-0.72303 1.44873,-0.72303 0.7968,0 1.44995,-0.24402 1.45145,-0.54228 0.001,-0.29825 1.46833,-1.14388 3.25963,-1.8792 1.79131,-0.73531 3.25693,-1.63006 3.25693,-1.98834 0,-0.35827 0.81491,-0.65141 1.81091,-0.65141 0.996,0 1.81091,-0.32536 1.81091,-0.72304 0,-0.39767 0.81491,-0.72303 1.81091,-0.72303 0.996,0 1.81091,-0.32537 1.81091,-0.72303 0,-0.39767 0.81491,-0.72304 1.81091,-0.72304 0.996,0 1.81091,-0.32536 1.81091,-0.72303 0,-0.39767 0.57043,-0.72976 1.26763,-0.73798 0.6972,-0.008 4.52728,-1.144102 8.51128,-2.524162 3.984,-1.380051 8.46601,-2.512093 9.96001,-2.51565 1.494,-0.0037 2.71636,-0.331828 2.71636,-0.729496 0,-0.397668 1.7928,-0.723032 3.984,-0.723032 2.1912,0 3.98401,-0.290249 3.98401,-0.644999 0,-0.649491 13.29654,-1.652394 21.36873,-1.61175 9.0399,0.04557 22.81748,1.030537 22.81748,1.631325 0,0.343976 1.95577,0.625424 4.34618,0.625424 2.41454,0 4.34618,0.321339 4.34618,0.723032 0,0.397668 1.46684,0.723032 3.25964,0.723032 1.7928,0 3.25964,0.325365 3.25964,0.723032 0,0.397668 0.57043,0.727828 1.26763,0.733677 1.58193,0.01329 9.36926,2.41233 10.0562,3.098007 0.2791,0.27858 1.24879,0.50651 2.15488,0.50651 0.90609,0 1.84889,0.32536 2.09512,0.72303 0.24622,0.39767 1.08037,0.72303 1.85366,0.72303 0.77329,0 1.40597,0.32537 1.40597,0.72304 0,0.39766 0.81491,0.72303 1.81092,0.72303 0.996,0 1.81091,0.32536 1.81091,0.72303 0,0.39768 0.51476,0.72304 1.1439,0.72304 1.47301,0 11.17028,5.13536 11.17028,5.91541 0,0.32554 0.65193,0.59188 1.44873,0.59188 0.7968,0 1.44873,0.32537 1.44873,0.72304 0,0.39766 0.65193,0.72303 1.44873,0.72303 0.79679,0 1.44872,0.32536 1.44872,0.72303 0,0.39767 0.34925,0.72303 0.77611,0.72303 0.42685,0 1.23045,0.40671 1.78577,0.90379 2.39698,2.14563 3.21634,2.71138 3.92683,2.71138 0.41521,0 0.75494,0.32537 0.75494,0.72303 0,0.39767 0.48894,0.72304 1.08654,0.72304 0.5976,0 1.08655,0.32536 1.08655,0.72303 0,0.39767 0.34077,0.72303 0.75728,0.72303 0.41651,0 1.57221,0.81342 2.56821,1.80758 0.996,0.99418 2.09605,1.80758 2.44456,1.80758 0.82863,0 19.51312,18.55589 21.3936,21.24636 0.7968,1.14002 2.18214,2.83042 3.07855,3.75644 0.8964,0.92603 1.62982,2.02385 1.62982,2.4396 0,0.41574 0.304,0.75589 0.67555,0.75589 0.37155,0 0.87017,0.61208 1.10804,1.36018 0.23788,0.7481 1.06872,2.1309 1.8463,3.07289 0.77759,0.94199 1.68246,2.03807 2.01082,2.43574 0.32837,0.39766 1.0659,1.78046 1.63899,3.07289 0.57306,1.29242 1.28834,2.34986 1.58949,2.34986 0.30115,0 0.54753,0.65073 0.54753,1.44606 0,0.79534 0.29369,1.44607 0.65261,1.44607 0.35894,0 1.25534,1.46292 1.992,3.25094 0.73668,1.78801 1.58387,3.25215 1.88267,3.25364 0.29881,9.2e-4 0.54327,0.65344 0.54327,1.44878 0,0.79534 0.32597,1.44606 0.72437,1.44606 0.3984,0 0.72437,0.81342 0.72437,1.80758 0,0.99418 0.32596,1.80759 0.72436,1.80759 0.39839,0 0.72436,0.65072 0.72436,1.44606 0,0.79534 0.32596,1.44606 0.72436,1.44606 0.39841,0 0.72437,0.97611 0.72437,2.16911 0,1.193 0.28897,2.1691 0.64215,2.1691 0.35318,0 0.80485,0.89475 1.00372,1.98834 0.38891,2.13873 1.78004,6.26877 2.79741,8.30506 0.345,0.69053 0.62727,2.23601 0.62727,3.43441 0,1.19839 0.32596,2.17892 0.72436,2.17892 0.39841,0 0.72437,1.64602 0.72437,3.65783 0,2.03553 0.2948,3.47597 0.66469,3.24778 1.08037,-0.66648 1.62834,8.87677 1.63778,28.52298 0.009,19.02309 -0.49612,27.47526 -1.64245,27.47526 -0.36301,0 -0.66002,1.60761 -0.66002,3.57249 0,1.96487 -0.32596,3.77357 -0.72437,4.01936 -0.3984,0.24577 -0.72436,1.56643 -0.72436,2.9348 0,1.36837 -0.32597,2.48794 -0.72437,2.48794 -0.3984,0 -0.72436,0.80237 -0.72436,1.78304 0,1.59228 -1.16808,4.92151 -2.98588,8.51037 -0.34977,0.69052 -0.63594,1.74795 -0.63594,2.34985 0,0.6019 -0.32596,1.09436 -0.72437,1.09436 -0.3984,0 -0.72436,0.97609 -0.72436,2.1691 0,1.193 -0.32597,2.1691 -0.72436,2.1691 -0.3984,0 -0.72436,0.81341 -0.72436,1.80758 0,0.99417 -0.32597,1.80758 -0.72437,1.80758 -0.3984,0 -0.72437,0.65073 -0.72437,1.44607 0,0.79533 -0.24446,1.44914 -0.54327,1.45291 -0.2988,0.004 -1.18676,1.46791 -1.97325,3.25366 -0.7865,1.78573 -1.6829,3.24679 -1.992,3.24679 -0.30911,0 -0.56203,0.65073 -0.56203,1.44607 0,0.79533 -0.32596,1.44606 -0.72436,1.44606 -0.39839,0 -0.72436,0.48805 -0.72436,1.08455 0,0.59651 -0.32596,1.08456 -0.72436,1.08456 -0.39841,0 -0.72437,0.53121 -0.72437,1.18049 0,0.64928 -0.59361,1.70671 -1.31912,2.34985 -0.72552,0.64316 -1.93668,2.2268 -2.69146,3.51922 -0.75478,1.29243 -1.62801,2.34986 -1.94051,2.34986 -0.3125,0 -0.56818,0.52018 -0.56818,1.15598 0,0.63578 -0.89746,2.01858 -1.99434,3.07289 -1.09687,1.05431 -2.96575,3.21836 -4.15304,4.80904 -2.76207,3.70049 -13.62507,14.55501 -17.37839,17.36482 -1.58476,1.18639 -3.83337,3.05182 -4.99689,4.14541 -1.16352,1.09358 -2.55611,1.98834 -3.09461,1.98834 -0.53851,0 -0.97912,0.25521 -0.97912,0.56714 0,0.31193 -1.05938,1.19038 -2.35418,1.95213 -1.2948,0.76173 -2.98609,1.97066 -3.75841,2.6865 -0.77232,0.71584 -1.8317,1.30153 -2.35418,1.30153 -0.52248,0 -0.94996,0.26463 -0.94996,0.58807 0,0.32345 -1.14087,1.03491 -2.53527,1.58101 -1.3944,0.54612 -2.53528,1.18466 -2.53528,1.41898 0,0.23433 -1.46375,1.06834 -3.25277,1.85339 -1.78903,0.78505 -3.25587,1.67137 -3.25964,1.96963 -0.004,0.29825 -0.65879,0.54227 -1.45559,0.54227 -0.7968,0 -1.44873,0.32537 -1.44873,0.72303 0,0.39767 -0.81491,0.72304 -1.81091,0.72304 -0.996,0 -1.81091,0.32536 -1.81091,0.72303 0,0.39767 -0.97789,0.72303 -2.1731,0.72303 -1.19519,0 -2.17308,0.32536 -2.17308,0.72303 0,0.39768 -0.49338,0.72304 -1.09638,0.72304 -0.603,0 -1.66239,0.28564 -2.35419,0.63476 -3.57071,1.80199 -6.92489,2.98041 -8.48326,2.98041 -0.95898,0 -1.94505,0.32536 -2.19127,0.72303 -0.24623,0.39767 -1.40634,0.72303 -2.57803,0.72303 -1.17169,0 -2.13034,0.32536 -2.13034,0.72303 0,0.39767 -1.62982,0.72303 -3.62182,0.72303 -1.992,0 -3.62182,0.29761 -3.62182,0.66134 0,1.02376 -8.13931,1.58545 -27.88802,1.92452 -11.25554,0.19324 -18.52031,0.0405 -19.19564,-0.40336 z m 18.1091,-146.06604 V 112.93392 h -7.82313 c -4.30272,0 -8.1328,0.29674 -8.51128,0.65941 -0.37848,0.36268 -2.48094,0.80009 -4.67215,0.97203 -4.67039,0.36648 -16.18966,3.31993 -16.53964,4.24065 -0.13281,0.34936 -1.35517,0.63521 -2.71637,0.63521 -1.3612,0 -2.47491,0.32536 -2.47491,0.72303 0,0.39767 -0.97789,0.72303 -2.17309,0.72303 -1.1952,0 -2.1731,0.32537 -2.1731,0.72303 0,0.39767 -0.63268,0.72304 -1.40597,0.72304 -0.77329,0 -1.60744,0.32536 -1.85366,0.72303 -0.24623,0.39767 -1.08038,0.72303 -1.85367,0.72303 -0.77328,0 -1.40597,0.29314 -1.40597,0.65141 0,0.35828 -1.46561,1.25303 -3.25692,1.98835 -1.79131,0.73531 -3.25815,1.58095 -3.25964,1.8792 -0.001,0.29825 -0.65464,0.54228 -1.45145,0.54228 -0.7968,0 -1.44872,0.32536 -1.44872,0.72303 0,0.39767 -0.48895,0.72303 -1.08655,0.72303 -0.5976,0 -1.08655,0.24594 -1.08655,0.54653 0,0.3006 -0.8964,0.9448 -1.992,1.43157 -1.0956,0.48677 -2.81894,1.62364 -3.82964,2.52636 -1.01071,0.90272 -2.29392,1.7429 -2.85159,1.86706 -0.55766,0.12417 -1.56175,0.85624 -2.23132,1.62683 -0.66956,0.77059 -1.43843,1.40108 -1.70862,1.40108 -0.27018,0 -1.25532,0.73206 -2.18921,1.62682 -3.26105,3.1244 -6.98021,6.32653 -7.34802,6.32653 -0.51229,0 -3.9267,3.45177 -3.9267,3.96966 0,0.42452 -1.31963,1.95307 -5.61382,6.50259 -1.2948,1.37178 -2.35419,2.83036 -2.35419,3.24128 0,0.41093 -0.27088,0.74714 -0.60196,0.74714 -0.33107,0 -1.06449,0.89475 -1.62982,1.98834 -0.56532,1.09358 -1.72402,2.69802 -2.57489,3.56539 -0.85087,0.86738 -1.98982,2.57555 -2.53101,3.79592 -0.54118,1.22038 -1.23036,2.21887 -1.53151,2.21887 -0.30115,0 -0.54754,0.48804 -0.54754,1.08454 0,0.59651 -0.32596,1.08456 -0.72436,1.08456 -0.3984,0 -0.72437,0.65073 -0.72437,1.44606 0,0.79534 -0.24447,1.4473 -0.54327,1.44878 -0.2988,9.2e-4 -1.14599,1.46563 -1.88266,3.25365 -0.73667,1.78802 -1.63307,3.25094 -1.99201,3.25094 -0.35893,0 -0.6526,0.8134 -0.6526,1.80758 0,0.99417 -0.32597,1.80758 -0.72437,1.80758 -0.3984,0 -0.72436,0.97609 -0.72436,2.1691 0,1.19301 -0.32597,2.16909 -0.72437,2.16909 -0.3984,0 -0.72436,0.65073 -0.72436,1.44608 0,0.79532 -0.32596,1.44606 -0.72436,1.44606 -0.3984,0 -0.72437,1.11166 -0.72437,2.47036 0,1.3587 -0.28154,2.57882 -0.62564,2.71138 -0.90907,0.35019 -4.44491,14.62239 -4.44491,17.94161 0,1.55127 -0.32596,3.02158 -0.72436,3.26735 -0.98112,0.60525 -0.98112,32.65426 0,33.25951 0.3984,0.24577 0.72436,1.95004 0.72436,3.78726 0,3.31898 0.22611,4.37631 2.4578,11.49347 0.64021,2.04171 1.16402,4.40061 1.16402,5.24199 0,0.84138 0.32597,1.52978 0.72437,1.52978 0.3984,0 0.72436,0.97609 0.72436,2.1691 0,1.193 0.32597,2.16909 0.72437,2.16909 0.3984,0 0.72436,0.99531 0.72436,2.21178 0,1.2904 0.30176,2.02562 0.72436,1.7649 0.3984,-0.24576 0.72437,0.20979 0.72437,1.01233 0,0.80255 1.46684,4.30458 3.25964,7.7823 1.7928,3.47772 3.25963,6.62517 3.25963,6.99433 0,0.36914 0.57266,1.1974 1.27259,1.84054 0.69991,0.64315 1.7593,2.14545 2.35418,3.33847 1.18137,2.36917 1.79361,3.23672 3.97906,5.63831 0.7968,0.8756 1.93767,2.56421 2.53527,3.75244 1.23637,2.45834 19.78121,21.33814 20.95956,21.33814 0.42425,0 0.77136,0.32536 0.77136,0.72303 0,0.39767 0.48895,0.72304 1.08655,0.72304 0.5976,0 1.08654,0.32535 1.08654,0.72303 0,0.39766 0.34078,0.72302 0.75729,0.72302 0.41651,0 1.54169,0.73208 2.5004,1.62683 2.90575,2.7119 3.89024,3.43441 4.67974,3.43441 0.41522,0 0.75494,0.32536 0.75494,0.72303 0,0.39767 0.65193,0.72303 1.44873,0.72303 0.7968,0 1.44873,0.32537 1.44873,0.72304 0,0.39766 0.62476,0.72303 1.38837,0.72303 0.76359,0 1.49701,0.26059 1.62981,0.57908 0.34519,0.82787 7.11272,4.48215 8.30069,4.48215 0.54743,0 0.99532,0.32537 0.99532,0.72304 0,0.39766 0.65192,0.72303 1.44873,0.72303 0.7968,0 1.44872,0.32536 1.44872,0.72303 0,0.39766 0.81491,0.72303 1.81091,0.72303 0.996,0 1.81091,0.32537 1.81091,0.72303 0,0.39767 0.9127,0.72304 2.02822,0.72304 1.11552,0 2.33789,0.27434 2.71637,0.60964 0.37848,0.3353 2.64393,1.15933 5.03433,1.83117 2.3904,0.67184 5.34722,1.53628 6.5707,1.92097 1.22349,0.3847 3.26077,0.69945 4.52728,0.69945 1.26652,0 2.30275,0.32537 2.30275,0.72303 0,0.41316 2.1731,0.72304 5.07055,0.72304 2.89745,0 5.07055,0.30987 5.07055,0.72302 0,0.42532 2.53528,0.72303 6.15709,0.72303 h 6.1571 z"
       id="path5822" />
    <text
       xml:space="preserve"
       style="font-style:normal;font-variant:normal;font-weight:bold;font-stretch:normal;font-size:192px;line-height:20;font-family:sans-serif;-inkscape-font-specification:'sans-serif Bold';fill:#000000;fill-opacity:1;stroke:none"
       x="324"
       y="420"
       id="text6215"><tspan
         id="tspan6213"
         x="324"
         y="420"
         style="font-style:normal;font-variant:normal;font-weight:bold;font-stretch:normal;font-size:192px;font-family:sans-serif;-inkscape-font-specification:'sans-serif Bold'">+</tspan></text>
  </g>
</svg>
