<?xml version="1.0" encoding="UTF-8" standalone="no"?>
<!-- Created with Inkscape (http://www.inkscape.org/) -->

<svg
   width="512"
   height="512"
   viewBox="0 0 512 512"
   version="1.1"
   id="svg5"
   xmlns="http://www.w3.org/2000/svg"
   xmlnsSvg="http://www.w3.org/2000/svg">
  <defs
     id="defs2" />
  <g
     id="layer1">
    <path
       style="fill:#030303;stroke:none"
       d="m 244.66666,47.091073 c -65.42,8.5896 -122.434,34.1574 -160.971493,90.575597 -79.1231603,115.836 -17.7106,285.941 120.971493,318.765 24.52,5.804 49.934,7.957 75,4.95 100.244,-12.028 179.533,-96.613 183.961,-197.715 4.303,-98.263 -64.661,-189.844097 -160.961,-211.423597 -18.369,-4.1163 -39.164,-7.625103 -58,-5.152 m 0,31.8611 c 15.297,-1.8049 31.994,0.2956 47,3.3148 96.938,19.503697 157.837,119.220697 135.346,214.399697 -17.651,74.694 -81.938,124.906 -156.346,133.715 -120.913,14.313 -217.012493,-110.036 -184.572493,-223.715 C 107.24066,132.56167 170.57866,87.693673 244.66666,78.952173 m -50,92.714497 c -5.445,5.445 -18.771,14.445 -20.654,22 -1.303,5.224 9.411,12.757 12.654,16 10.846,10.846 22.152,21.152 33,32 2.939,2.939 10.944,8.459 10.944,13 0,5.245 -10.487,12.543 -13.944,16 l -44,44 v 1 c 5.445,5.445 14.445,18.771 22,20.654 5.224,1.303 12.757,-9.411 16,-12.654 l 32,-32 c 2.939,-2.939 8.459,-10.944 13,-10.944 5.245,0 12.543,10.487 16,13.944 l 30,30 c 3.579,3.579 8.093,10.134 13,11.824 5.574,1.92 24.819,-17.421 22.248,-22.824 -3.18,-6.684 -12.047,-12.799 -17.248,-18 -13.093,-13.093 -25.865,-29.338 -41,-40 v -1 c 16.6,-11.693 30.637,-29.637 45,-44 3.511,-3.511 13.793,-10.641 13.793,-16 0,-6.926 -16.066,-18.273 -20.793,-23 h -1 l -44,44 -16,13.944 -17,-14.944 z"
       id="path465" />
  </g>
</svg>
