<?xml version="1.0" encoding="UTF-8" standalone="no"?>
<!-- Created with Inkscape (http://www.inkscape.org/) -->

<svg
   width="512"
   height="512"
   viewBox="0 0 512 512"
   version="1.1"
   id="svg5"
   xmlns="http://www.w3.org/2000/svg"
   xmlnsSvg="http://www.w3.org/2000/svg">
  <defs
     id="defs2" />
  <g
     id="layer1">
    <path
       style="fill:#020202;stroke:none;stroke-width:0.879557"
       d="m 266.20313,104.79884 c 48.62632,3.84305 94.19971,41.17735 115.39,83.55794 7.3443,14.68773 10.71301,29.99994 14.78448,45.73698 -6.36887,-0.94024 -21.35037,-9.3277 -26.88455,-4.62383 -5.1331,4.36348 2.36865,13.65601 4.62383,17.81719 8.75424,16.1478 17.63337,32.22786 26.38672,48.37565 4.608,8.49917 9.07879,17.09156 13.83808,25.50717 1.69842,3.00193 3.57804,7.65039 7.55364,7.98902 7.69436,0.65702 15.10991,-19.89999 18.18836,-25.58017 9.7068,-17.90427 19.24384,-35.94135 29.29718,-53.653 2.5428,-4.47958 10.77897,-14.86715 6.5052,-19.94923 -2.52521,-3.00281 -6.88078,-1.42313 -10.02343,-0.53566 -8.18516,2.31236 -16.68609,4.25178 -24.62761,7.29154 C 438.35096,169.5624 389.68946,107.44349 331.29037,78.243861 309.96022,67.578789 287.59132,63.374329 264.44401,59.061859 c 1.66676,-8.053754 4.49718,-15.822004 6.66265,-23.748047 0.83382,-3.052679 2.23584,-7.456535 -0.15656,-10.169881 -4.27553,-4.84819 -13.88293,2.589179 -17.94033,4.892537 -16.26565,9.233153 -32.96141,17.707952 -49.25521,26.892993 -8.13151,4.584164 -16.40198,8.959786 -24.6276,13.373932 -3.12947,1.679075 -7.65567,3.962054 -7.65567,8.099228 0,7.233743 19.68185,14.312249 25.24681,17.329129 18.18485,9.85816 36.51394,19.51271 54.53255,29.66984 4.33182,2.44253 14.85925,10.73851 19.69945,6.01089 4.76456,-4.65461 -3.03008,-21.24412 -4.74697,-26.61364 M 122.83529,381.85939 v -73.88281 c 0,-17.87261 -0.43362,-35.54907 11.72098,-50.13477 16.12668,-19.3529 38.1807,-19.35026 61.28227,-19.35026 h 70.36459 v -56.29167 c 0,-6.52719 2.00187,-16.72654 -2.83921,-21.87195 -3.95537,-4.20252 -9.47899,-3.63521 -14.75194,-3.63521 H 215.1888 88.532553 58.627605 c -5.313582,0 -10.71723,-0.44857 -14.751584,3.70645 -3.633134,3.74164 -2.839563,9.09463 -2.839563,13.8847 v 30.7845 125.7767 33.42317 c 0,5.00996 -0.765944,10.6101 3.107652,14.48367 5.053409,5.05306 14.999707,3.10748 21.519953,3.10748 h 57.171227 m 44.85742,-118.28463 c -18.80933,4.01255 -20.22982,20.65553 -20.22982,36.4858 v 115.22201 c 0,13.71669 -4.02485,34.83486 4.22188,46.61654 10.4852,14.97974 30.91292,11.43424 46.79245,11.43424 h 92.35351 c 14.83726,0 32.15398,2.43637 46.61654,-1.08977 18.47334,-4.50421 20.22982,-21.71891 20.22982,-37.61075 V 319.41082 c 0,-14.88387 3.5666,-35.14887 -6.61251,-47.46091 -10.63209,-12.86001 -31.40372,-8.83076 -46.16093,-8.83076 h -92.35352 c -14.16263,0 -31.00527,-2.4997 -44.85742,0.45561 m 153.92253,34.72669 V 438.15106 H 182.64518 V 298.30145 Z"
       id="path721" />
  </g>
</svg>
