<?xml version="1.0" encoding="UTF-8" standalone="no"?>
<!-- Created with Inkscape (http://www.inkscape.org/) -->

<svg
   width="512"
   height="512"
   viewBox="0 0 512 512"
   version="1.1"
   id="svg5"
   xmlns="http://www.w3.org/2000/svg"
   xmlnsSvg="http://www.w3.org/2000/svg"
>
  <defs
      />
  <g
     id="layer1">
    <path
       style="fill:#000000;stroke-width:1.9393"
       d="m 208.92824,462.56249 c -4.15913,-3.24786 -4.23125,-4.46717 -4.71066,-79.63216 l -0.48685,-76.33378 -80.813,-0.45987 c -79.575617,-0.45281 -80.86647,-0.52095 -84.304913,-4.44956 -3.104676,-3.54726 -3.49192,-8.85539 -3.49192,-47.86454 0,-39.00914 0.387244,-44.31728 3.49192,-47.86454 3.438443,-3.92861 4.729296,-3.99672 84.304913,-4.44956 l 80.813,-0.45987 0.48685,-76.33377 c 0.47941,-75.164981 0.55153,-76.384286 4.71066,-79.632147 3.75541,-2.932593 9.37503,-3.298373 50.67321,-3.298373 41.29818,0 46.91779,0.36578 50.6732,3.298373 4.15914,3.247861 4.23127,4.467166 4.71066,79.632147 l 0.48686,76.33377 80.813,0.45987 c 79.57562,0.45284 80.86647,0.52095 84.30492,4.44956 3.10467,3.54726 3.49192,8.8554 3.49192,47.86454 0,39.00915 -0.38725,44.31728 -3.49192,47.86454 -3.43845,3.92861 -4.7293,3.99675 -84.30492,4.44956 l -80.813,0.45987 -0.48686,76.33378 c -0.47939,75.16499 -0.55152,76.3843 -4.71066,79.63216 -3.75541,2.93259 -9.37502,3.29837 -50.6732,3.29837 -41.29818,0 -46.9178,-0.36578 -50.67321,-3.29837 z"
       id="path1468" />
  </g>
</svg>
