<?xml version="1.0" encoding="UTF-8" standalone="no"?>
<!-- Svg Vector Icons : http://www.onlinewebfonts.com/icon -->

<svg
   version="1.1"
   x="0px"
   y="0px"
   viewBox="0 0 1000 1000"
   enable-background="new 0 0 1000 1000"
   xml:space="preserve"
   id="svg91"
   xmlns="http://www.w3.org/2000/svg"
   xmlnsSvg="http://www.w3.org/2000/svg"><defs
   id="defs95" />
<g
   id="g89"
   style="fill:#000000"
   transform="matrix(-0.79166421,0,0,0.80811947,906.94941,87.86529)"><g
     transform="matrix(0.1,0,0,-0.1,0,511)"
     id="g87"
     style="fill:#000000"><path
       d="M 4522.4,4868.5 C 3073.4,4771.7 1701.9,3966.2 894,2739.8 146.6,1602.9 -85.7,226.6 250.6,-1082.1 c 379.8,-1485.2 1436.8,-2680.2 2868.8,-3248.6 459.6,-181.4 1156.2,-329 1557.8,-329 H 4803 l 41.1,658 c 24.2,362.8 48.4,706.3 55.6,762 l 14.5,104 h -140.3 c -396.7,0 -902.3,128.2 -1328,336.2 -911.9,445.1 -1543.2,1255.4 -1758.5,2259.3 -72.6,343.5 -72.6,914.4 2.4,1267.5 140.3,667.6 423.3,1202.2 885.3,1666.6 488.6,491 1083.7,798.2 1777.9,919.2 365.3,62.9 943.4,36.3 1306.2,-58.1 C 6464.7,3044.6 7105.7,2594.6 7558,1917.3 7930.5,1365.8 8104.7,790.1 8104.7,120 c 0,-418.5 -45.9,-706.3 -176.6,-1090.9 -41.1,-116.1 -220.1,-508 -249.1,-539.4 -4.8,-4.8 -108.9,43.5 -232.2,106.4 -125.8,62.9 -304.8,150 -401.6,193.5 l -174.2,77.4 91.9,-256.4 c 50.8,-142.7 232.2,-653.1 401.5,-1132.1 l 307.2,-875.6 186.3,67.7 c 101.6,36.3 597.5,210.4 1103,387 505.6,176.6 926.4,329 938.5,338.7 9.7,7.3 -174.2,106.4 -406.4,217.7 -237.1,111.3 -420.9,212.9 -413.6,227.4 4.8,14.5 65.3,147.6 130.6,292.7 684.6,1514.2 544.3,3251 -374.9,4625 -955.3,1429.7 -2583.2,2225.5 -4312.7,2109.4 z"
       id="path85"
       style="fill:#000000" /></g></g>
</svg>
