<?xml version="1.0" encoding="UTF-8" standalone="no"?>
<!-- Created with Inkscape (http://www.inkscape.org/) -->

<svg
   width="512"
   height="512"
   viewBox="0 0 512 512"
   version="1.1"
   id="svg5"
   xmlns="http://www.w3.org/2000/svg"
   xmlnsSvg="http://www.w3.org/2000/svg">
  <defs
     id="defs2" />
  <g
     id="layer1">
    <path
       style="fill:#000000;stroke-width:1.50668"
       d="m 417.95065,450.78737 c -1.83318,-1.01726 -36.55054,-34.52755 -77.14968,-74.4673 -40.59916,-39.93978 -74.26546,-72.61776 -74.81401,-72.61776 -0.54856,0 -5.5266,2.67523 -11.06234,5.94494 -5.53573,3.26972 -16.51122,8.11129 -24.38999,10.75903 -12.28329,4.12794 -17.09269,4.91938 -33.74323,5.55283 -30.49438,1.1601 -52.94748,-4.36116 -75.95363,-18.67715 -28.720697,-17.87198 -50.051387,-46.85601 -58.585549,-79.60578 -4.162852,-15.9749 -3.871597,-47.36567 0.583714,-62.91124 17.547292,-61.2264 71.767595,-100.500402 133.770995,-96.895841 19.55185,1.136645 31.24008,4.174944 49.76063,12.935026 26.94688,12.745674 48.30138,33.661805 61.14244,59.887275 9.79363,20.00166 12.47786,32.26294 12.45109,56.87543 -0.02,18.43776 -0.52399,22.73456 -4.02519,34.31953 -4.41647,14.61346 -10.92859,28.45096 -18.10158,38.46378 l -4.68708,6.54274 74.1745,73.24706 c 40.79598,40.28588 74.88549,74.72681 75.75446,76.53539 7.00382,14.57704 -11.06327,31.91534 -25.12555,24.11204 z M 214.61699,290.17473 c 26.68917,-6.81494 50.73105,-26.00879 62.54629,-49.93388 18.61811,-37.70048 11.67349,-81.39667 -17.49687,-110.09193 -20.30923,-19.97844 -41.00862,-28.6017 -69.09107,-28.78302 -18.17495,-0.11734 -27.62167,2.00064 -44.31876,9.93641 -26.06283,12.38711 -46.680173,39.256 -52.33118,68.19891 -9.640303,49.37503 23.11305,99.24111 73.15141,111.37096 12.83577,3.11155 33.8293,2.80355 47.54018,-0.69745 z m -33.95898,-33.02612 -4.40771,-4.40059 v -19.6869 -19.68688 h -21.64433 c -20.88494,0 -21.78432,-0.12953 -25.63426,-3.69178 -6.20234,-5.73887 -5.92781,-14.68884 0.63715,-20.77207 4.43156,-4.10638 4.63929,-4.14004 25.55466,-4.14004 h 21.08678 v -21.94509 -21.94508 l 4.40771,-4.4006 c 6.08333,-6.07354 13.75132,-6.07354 19.83465,0 l 4.40771,4.4006 v 21.94508 21.94509 h 20.24092 c 19.57571,0 20.39341,0.1281 24.88031,3.8975 6.28171,5.27718 6.60648,14.80456 0.70552,20.69601 -3.80566,3.79953 -4.60431,3.94116 -24.50334,4.34533 l -20.56947,0.41778 -0.42459,19.53833 c -0.40909,18.82471 -0.57085,19.69075 -4.42883,23.71111 -5.67424,5.91309 -14.08738,5.81794 -20.14288,-0.2278 z"
       id="path421" />
  </g>
</svg>
