<?xml version="1.0" encoding="UTF-8" standalone="no"?>
<!-- Created with Inkscape (http://www.inkscape.org/) -->

<svg
   width="512"
   height="512"
   viewBox="0 0 512 512"
   version="1.1"
   id="svg5"
   xmlns="http://www.w3.org/2000/svg"
   xmlnsSvg="http://www.w3.org/2000/svg">
  <defs
     id="defs2" />
  <g
     id="layer1">
    <path
       style="fill:#000000"
       d="m 436.17739,468.89467 c -1.375,-0.53687 -29.9901,-28.44709 -63.58912,-62.0227 l -61.08912,-61.04658 -6.91088,5.16875 C 289.91113,361.97138 270.32272,371.30869 251.1622,376.46101 181.03961,395.31719 106.38104,363.68464 70.694539,299.99757 47.629765,258.83558 44.033669,210.39161 60.702301,165.38951 84.303844,101.66987 148.90181,58.980094 216.67739,62.312844 c 71.05272,3.4939 129.62183,50.492556 147.9747,118.741996 3.06749,11.40718 5.5253,29.18016 5.5253,39.95473 0,34.08286 -11.82941,69.99174 -31.74988,96.37865 l -4.44707,5.89066 61.53128,61.60934 c 66.55886,66.64331 63.92673,63.57377 62.23717,72.57991 -1.70868,9.10805 -12.65676,14.90731 -21.5715,11.42654 z M 227.48584,348.91768 c 43.62876,-6.55137 78.84565,-32.26681 97.8087,-71.42011 17.40652,-35.93952 17.0848,-77.19834 -0.88113,-113 -11.79773,-23.50995 -33.74895,-45.23158 -58.01351,-57.40671 -21.44963,-10.762706 -49.88769,-15.245316 -74.05954,-11.673806 -28.57569,4.2222 -51.64104,15.868706 -72.25791,36.485576 -18.81005,18.81006 -29.865996,39.07261 -35.518036,65.09494 -2.56007,11.78674 -2.58496,38.10493 -0.0471,49.76818 6.94414,31.91265 23.935396,58.84378 49.277856,78.10538 8.68707,6.60262 30.40671,17.33183 40.88218,20.19524 17.26684,4.71979 37.29674,6.18057 52.80845,3.85131 z M 139.35702,236.31581 c -1.82621,-0.89991 -4.52621,-3.21714 -6,-5.14938 -2.18873,-2.86957 -2.67963,-4.56739 -2.67963,-9.26769 0,-6.21697 1.66384,-9.44079 6.88459,-13.33938 2.71711,-2.029 3.85015,-2.06609 71.2443,-2.33209 76.3472,-0.30134 72.69168,-0.60917 78.17756,6.58318 3.84717,5.04391 3.84717,13.33033 0,18.37424 -5.42955,7.1185 -1.99489,6.81545 -76.95758,6.79011 -60.30854,-0.0204 -67.69597,-0.19381 -70.66924,-1.65899 z"
       id="path750" />
  </g>
</svg>
