<svg width="512" height="512" xmlns="http://www.w3.org/2000/svg" version="1.1">

 <g>
  <title>Layer 1</title>
  <g id="layer1">
   <path stroke="#ffffff" stroke-width="2.01266" fill="#ffffff" id="path397" d="m212.7868,125.01055c-14.06133,4.59772 -5.44022,51.06653 11.91645,45.64768c14.01623,-4.37605 5.63281,-51.38576 -11.91645,-45.64768m75.19237,0.52539c-12.28365,5.92174 -16.94145,54.69358 3.56332,44.37543c12.0142,-6.04528 16.49237,-54.04563 -3.56332,-44.37543m-148.12935,24.6105c-16.8533,6.52702 8.19501,45.97291 22.38585,41.8451c19.05458,-5.54278 -6.86138,-47.85761 -22.38585,-41.8451m219.27464,0.54613c-8.13548,4.16174 -19.54396,22.3835 -20.19146,30.93758c-0.5723,7.55684 7.71357,13.24546 15.19112,9.61453c8.7788,-4.26259 19.17426,-21.92657 20.23114,-30.90906c0.93783,-7.97963 -7.35431,-13.67175 -15.2308,-9.64305m-113.22633,41.64011c-47.26122,2.75956 -89.32367,22.51984 -119.04775,57.18512c-7.78877,9.08412 -20.9269,22.67732 -21.48186,34.90906c-0.66212,14.59975 15.48854,32.50034 25.38042,42.49209c32.63698,32.97161 81.30181,51.57038 129.77009,48.48481c43.56401,-2.77139 85.21269,-22.9275 112.94854,-54.12844c8.09371,-9.10351 21.37784,-22.51247 22.15066,-34.90906c0.90858,-14.54351 -15.03864,-32.5527 -24.76154,-42.66664c-30.93991,-32.18673 -77.52001,-54.13697 -124.95856,-51.36694m-164.88491,6.67559c-22.79715,5.20435 14.98935,39.23778 28.99701,35.55255c23.2794,-6.1246 -15.5698,-38.61776 -28.99701,-35.55255m342.41396,-0.14662c-9.7772,1.17023 -26.9317,13.64634 -31.22189,21.73884c-3.64896,6.8829 1.9049,15.06869 10.35578,14.22079c9.97354,-1.00073 27.04448,-13.94365 31.22188,-22.17889c3.53826,-6.97619 -1.80463,-14.80416 -10.35577,-13.78074m-190.06125,14.36896c42.31706,-5.10604 89.79321,10.37671 118.13896,40.24161c7.12455,7.50739 18.391,18.7132 20.00139,29.01525c1.51848,9.71636 -9.28845,20.38496 -15.53366,27.1515c-20.72409,22.44846 -51.11258,39.75754 -82.92139,44.0242c-42.19801,5.65915 -84.71579,-5.44775 -116.9365,-31.29985c-9.44802,-7.58109 -26.32367,-23.60435 -27.04198,-35.99706c-0.5558,-9.5903 11.34332,-20.38496 17.48472,-27.1515c21.90858,-24.14097 52.76766,-41.87691 86.80846,-45.98415m8.3548,25.5577c-63.30724,11.06695 -44.4772,99.92797 18.7983,89.60652c62.30592,-10.16242 42.50295,-100.32283 -18.7983,-89.60652m6.2661,5.6671c53.42059,-3.67108 59.42351,73.63931 6.2661,78.41603c-54.93949,4.93575 -61.56214,-74.61618 -6.2661,-78.41603z"/>
  </g>
 </g>
</svg>