<?xml version="1.0" encoding="UTF-8" standalone="no"?>
<!-- Created with Inkscape (http://www.inkscape.org/) -->

<svg
   width="512"
   height="512"
   viewBox="0 0 512 512"
   version="1.1"
   id="svg5"
   xmlns="http://www.w3.org/2000/svg"
   xmlnsSvg="http://www.w3.org/2000/svg">
  <defs
     id="defs2" />
  <g
     id="layer1">
    <g
       id="g105"
       transform="rotate(-34.222276,15.238042,251.84877)">
      <title
         id="title101">Layer 1</title>
      <g
         id="layer1-5">
        <path
           stroke="#ffffff"
           stroke-width="1.70779"
           fill="#ffffff"
           id="path2098"
           d="m 155.07963,365.74312 c -0.62818,-0.65403 -1.14214,-15.15887 -1.14214,-32.23299 v -31.04384 l -10.46054,-10.9237 c -48.35429,-50.49527 -25.50413,-135.74499 40.74266,-152.0033 53.19334,-13.05473 106.76346,30.24355 106.93541,86.431 0.0199,6.48724 2.68122,13.86522 13.47406,37.35348 15.81033,34.40772 15.82422,33.85022 -0.84415,33.85022 h -12.60517 l -0.0368,10.01987 c -0.0807,21.98913 -9.88578,31.68815 -32.1113,31.76392 l -11.22692,0.0383 -0.48882,13.50504 -0.48882,13.50504 -45.30266,0.46308 c -24.91646,0.25469 -45.81662,-0.072 -46.44479,-0.72609 z m 86.23756,-19.34108 0.48883,-13.50504 15.06317,-0.93518 c 23.06347,-1.43186 26.04897,-4.35348 27.53546,-26.9462 l 0.91721,-13.94068 12.02672,-0.50973 12.02674,-0.50974 -12.44516,-27.15384 c -9.41815,-20.54928 -12.44514,-28.95031 -12.44514,-34.53979 0,-53.97339 -50.04428,-95.28305 -99.26081,-81.93605 -62.35613,16.91032 -82.06156,96.39842 -35.20986,142.03011 l 10.61789,10.34139 v 30.55491 30.55488 h 40.09806 40.09807 z m 131.06261,18.77704 c -0.55446,-0.93408 2.09728,-5.78869 5.89277,-10.78802 26.64746,-35.09934 26.60995,-79.38419 -0.0971,-114.56193 -9.25076,-12.18488 -6.77029,-16.56767 3.49478,-6.175 29.52387,29.89089 30.26787,92.7558 1.48255,125.26977 -7.22802,8.16425 -9.02166,9.20569 -10.77309,6.25518 z m -37.6842,-21.11392 c 0,-1.04567 2.59343,-5.05578 5.76317,-8.91136 18.74328,-22.79872 18.7525,-54.58516 0.0221,-76.17094 -6.57742,-7.58011 -6.38994,-13.22065 0.29371,-8.83694 16.35699,10.72831 24.56889,42.33216 17.33534,66.71579 -4.53701,15.29387 -23.41432,37.22609 -23.41432,27.20345 z" />
      </g>
    </g>
    <g
       id="g121"
       transform="matrix(-0.61002619,0.38067359,-0.39133884,-0.59340101,557.74818,407.88519)">
      <title
         id="title117">Layer 1</title>
      <g
         id="layer1-9">
        <path
           stroke-width="1.09224"
           fill="#ffffff"
           id="path986"
           d="m 224.20398,153.70733 h -2.25871 c -2.52636,-18.41009 -5.27633,-36.59094 -8.53225,-54.93024 -1.02884,-5.79219 0.26088,-12.12607 -1.59352,-17.74046 -4.25992,-12.90143 -20.80944,-7.28703 -26.90004,1.0011 -7.71573,10.49949 -5.88957,25.84795 -5.88957,37.86637 0,15.06356 -1.74485,30.42818 -0.87186,45.42309 0.72617,12.4681 4.24185,24.35522 4.25992,36.97228 h -1.12935 c -6.6869,-19.71362 -11.78253,-40.82691 -19.85288,-59.9363 -2.42924,-5.75183 -2.35245,-14.23961 -7.74284,-18.37839 -5.97202,-4.58562 -13.00449,-0.36022 -16.59019,4.71872 -5.1329,7.26981 -7.55197,23.75522 -2.11753,31.34193 v 1.05635 c -2.88888,4.649 -0.21345,11.79205 0.585,16.90162 1.12145,7.16945 1.52689,14.89666 3.43323,21.9066 1.98992,7.31946 6.05446,13.88785 7.55537,21.41012 2.65737,13.32481 0.7849,26.65913 2.20675,40.00401 2.64608,24.84537 8.15506,49.96328 14.97973,74.07555 2.86968,10.1378 5.81729,21.38054 11.20995,30.63417 3.4976,6.00219 9.60288,10.63323 12.19135,17.09704 5.53157,13.81707 0.27444,30.95003 -0.25184,45.21393 -0.1231,3.33702 -3.69411,12.87798 0.65502,14.78892 5.38701,2.36728 5.00416,-9.41315 5.04369,-11.60613 0.26427,-14.80265 6.84952,-28.74331 2.24741,-43.31039 17.71502,6.87368 35.18835,10.36597 54.2089,4.22541 v -2.11271 l -1.12935,-1.05635 c -14.30663,0.47959 -31.2311,2.65778 -43.95664,-4.61942 -15.07121,-8.61877 -22.92698,-25.98729 -28.46419,-40.80366 -12.79556,-34.23634 -21.31539,-71.41038 -21.31539,-107.7478 7.41984,-2.53946 14.04123,-6.17648 18.06963,-12.67621 l -18.06963,9.50716 -5.64677,-25.35242 22.58705,-9.50716 v -2.1127 l -1.12936,-1.05635 -22.58704,11.61986 c -1.59238,-9.19237 4.75796,-12.04874 13.55223,-13.73256 -5.11484,-4.03209 -11.6041,-0.51339 -14.68158,4.2254 l -4.51741,-21.12702 c 7.58247,-1.02043 15.36935,-1.37536 20.32834,-7.39445 h 1.12935 l 8.50628,21.20941 9.56336,32.66448 c -6.19224,2.81729 -10.3923,7.58672 -12.42288,13.73256 9.10032,-3.87575 27.9334,-12.7174 30.49251,-22.18336 l -12.42287,3.16905 c 2.87759,-16.50443 -1.84085,-32.37399 -3.53826,-48.5932 -1.55512,-14.86814 0.16375,-30.46833 0.14907,-45.42203 -0.0192,-19.26921 -1.74033,-34.44812 15.81206,-47.53578 h 3.38806 1.12935 l 4.61566,22.17671 4.10181,19.0273 0.6426,22.17598 6.4373,32.74793 -0.62904,17.95691 0.62566,9.58427 -21.44075,5.2057 v 4.2254 l 16.94028,-5.28175 -10.16417,8.4508 v 1.05636 l 32.75121,-14.78892 -1.12935,-3.16905 h -2.25871 l -4.5174,3.16905 -2.10286,-33.80323 3.99113,-25.35242 -3.12153,-21.81259 3.17461,-25.64132 -6.45876,-18.03983 c 2.62913,-3.40262 3.41177,-7.83189 7.12734,-10.51006 8.1878,-5.90173 19.05894,0.0225 21.18551,8.43158 2.27113,8.97993 0.18409,18.33677 1.07967,27.42424 1.72677,17.51292 4.71843,32.82853 3.35869,50.71149 -3.99,-1.88981 -6.5909,-2.88489 -10.16417,0 l 11.29352,2.1127 5.64676,46.47944 c -5.97201,1.181 -9.45155,3.44265 -12.42287,8.45081 l 15.7059,-8.09693 5.75179,-26.76265 -2.25871,-21.12702 c 10.17885,-19.25939 -5.37797,-44.06969 1.41734,-64.43718 5.58578,-16.7419 23.6396,-14.71074 23.17431,3.16873 -0.16602,6.42642 -0.8617,12.62169 0.2541,19.01442 -8.32107,-0.99097 -14.74256,-1.33745 -20.32834,5.28175 6.66544,-1.49748 17.95331,-5.54489 22.57801,1.54006 6.36277,9.74811 1.58448,26.55993 2.91373,37.53436 1.85891,15.34878 0.80861,31.27433 3.11249,46.47627 2.28807,15.10054 8.25782,30.21692 10.9231,45.43682 l -19.19899,-5.28175 10.16417,8.4508 c 12.83509,3.68561 -10.47587,15.15864 -12.42287,22.18337 h 4.5174 c 5.36894,-7.4029 15.7172,-8.35468 20.79025,-16.1516 13.25069,-20.36645 18.37794,-44.62238 36.73782,-62.00569 8.15957,-7.72615 27.95937,-13.15262 31.69075,1.04368 -11.98017,2.61024 -9.78358,11.7688 -14.68158,20.07067 0.98254,16.27942 -10.12577,35.46486 -15.50035,50.70484 -3.24689,9.20504 -3.43775,19.12312 -6.34696,28.5088 -2.39197,7.71453 -7.04264,14.70334 -10.07495,22.19604 -4.09165,10.10822 -6.77047,20.66856 -11.29352,30.64474 -6.5638,14.4794 -17.90024,25.18552 -22.8852,40.50155 -4.32654,13.29101 -3.58456,29.19226 -2.58057,42.93961 0.38173,5.23633 -0.30153,13.00368 6.56719,13.73256 0.72956,-12.00437 1.13951,-23.87036 1.12935,-35.91593 -0.006,-6.05289 -1.36652,-12.91812 0.2654,-18.81889 3.75509,-13.58256 16.91317,-23.99079 22.50347,-37.15398 14.694,-34.60394 24.96094,-70.3593 36.77735,-105.66149 4.04873,-12.09733 6.95681,-25.17179 11.79834,-36.95538 2.1932,-5.33774 8.888,-11.18887 8.93882,-16.92591 0.0474,-5.2807 -5.45816,-8.86701 -10.27371,-10.3871 -8.00146,-2.52679 -16.75394,0.094 -23.70623,3.98244 -12.00163,6.71205 -21.14373,19.89531 -26.12982,31.97891 -3.88836,9.42265 -4.5784,16.30478 -12.26816,24.09431 -2.8358,-15.87484 -9.69322,-31.49088 -11.06991,-47.53579 -2.42358,-28.25211 1.41169,-58.18592 -6.91502,-85.56442 -3.12153,-10.26466 2.9702,-25.37228 -5.05837,-33.96326 -10.22741,-10.942 -25.11679,-0.0188 -27.88935,10.7264 -3.44791,13.36326 -0.56128,28.70358 0.0237,42.25117 0.56468,13.07234 -1.04013,26.02743 -1.04126,39.08499 h -2.25871 c -0.90235,-16.3407 -0.90913,-33.39231 -2.66527,-49.64184 -0.69907,-6.47564 -3.28189,-12.57005 -3.88045,-19.02762 -0.86847,-9.37564 1.31908,-19.12946 -0.98706,-28.38003 -2.95325,-11.85257 -20.70554,-16.52006 -30.05093,-7.8209 -8.81798,8.20879 -3.93918,20.88891 -3.29996,30.92583 0.52176,8.19676 -2.01251,16.22132 -1.9199,24.42684 0.14569,12.93206 2.44618,24.81072 1.01755,37.89786 m 9.03481,-43.31039 15.81093,-6.33811 v 2.11271 c -4.77716,0.36549 -9.55996,0.65546 -11.29352,5.28175 l 15.81093,-3.16905 c -3.51567,-10.19589 -17.7873,-7.27351 -20.32834,2.1127 m -45.17408,11.61986 v 4.2254 l 21.45769,-5.28175 1.12935,-3.16905 c -8.47579,-1.52062 -14.89954,1.17783 -22.58704,4.2254 m -25.9751,46.47944 -20.32834,7.39445 c -5.90877,-9.73427 -5.69532,-27.02145 -4.22265,-37.97792 0.69343,-5.16028 4.25653,-11.85332 10.93665,-11.06634 6.37971,0.75318 6.70835,7.43777 7.57005,12.07093 1.92893,10.37442 6.00928,18.76501 6.04429,29.57888 m 72.27853,-24.29607 20.32834,-2.1127 v -2.11271 c -6.34357,0 -17.54787,-2.33981 -20.32834,4.22541 m 44.04474,10.56351 h 10.16417 l -5.64677,4.2254 16.94029,-4.2254 c -3.99904,-7.5001 -17.7026,-7.7251 -21.45769,0 m -86.96012,4.2254 h 1.12936 l 15.81093,-4.2254 v 2.1127 l -13.55223,2.1127 v 1.05635 l 19.19899,-1.05635 c -4.09503,-10.27513 -18.72014,-10.66492 -22.58705,0 m 97.87756,-6.68987 -0.3772,0.70353 0.3772,-0.70353 m -122.7233,15.14068 -1.12935,1.05635 1.12935,-1.05635 m 72.27853,25.35242 v 2.1127 l 23.7164,-1.05635 c -6.26226,-6.81346 -15.60991,-2.19827 -23.7164,-1.05635 m 45.17409,1.05635 v 1.05635 l 12.42287,-1.05635 h -12.42285 m -100.51234,8.45081 v 4.2254 h -1.12935 l 1.12935,-4.2254 m 82.4427,5.28175 c -7.39951,15.06885 -6.71964,34.45922 -23.80787,43.97272 -21.28377,11.84909 -58.64725,4.62365 -74.44576,24.69009 l 31.62186,-10.60471 47.38084,-12.19874 23.40243,-18.74283 18.43555,-12.32762 -28.23381,13.73256 7.90547,-28.52147 H 265.99 m 71.14919,10.56351 v 3.16905 l 10.16416,1.05635 -10.16416,-4.2254 m -1.12936,7.39446 v 1.05635 l 23.7164,5.28175 c -5.58126,-6.82086 -15.16381,-6.9772 -23.7164,-6.3381 m -144.55707,82.39537 24.93949,-17.92839 29.26942,-11.56176 19.19898,-12.88115 21.45769,-13.6153 c -15.7251,5.02295 -25.6826,14.30405 -39.70689,21.79252 -18.32148,9.78286 -44.56423,15.17025 -55.15869,34.19408 m 98.25364,-55.9866 -6.77612,9.50716 11.29353,-6.33811 -4.51741,-3.16905 m -35.00992,132.04386 1.12935,-1.05635 c -7.35772,-31.89969 -9.55319,-65.14727 7.88288,-95.07158 5.54173,-9.51139 15.41792,-15.31075 21.48028,-24.29607 -35.74625,11.65683 -42.27052,56.17568 -40.51664,86.62077 0.5963,10.3533 0.5387,26.96547 10.02413,33.80323 m 51.9502,-115.14225 c 1.85552,5.19936 3.19719,9.61702 9.03482,11.61986 l -9.03482,-11.61986 m -1.12935,9.50716 27.10445,23.23972 h 1.12935 l 1.12935,-3.16905 c -8.21265,-9.55681 -17.52641,-14.94737 -29.36315,-20.07067 m -41.78603,107.74779 1.12935,6.33811 c 12.37544,2.9451 25.2749,5.96732 31.62186,-7.39446 -12.98529,6.34973 -19.30966,3.04335 -32.75121,1.05635 m 1.12935,40.14133 c 0.43819,-7.72826 3.56537,-14.59982 4.60437,-22.17174 0.26201,-1.90883 0.80297,-5.98529 -1.85553,-6.79657 -3.39596,-1.03628 -5.71339,4.69548 -6.35712,6.8103 -2.06558,6.79445 -2.42924,17.30408 3.60828,22.15801 z" />
      </g>
    </g>
  </g>
</svg>
