<svg width="512" height="512" xmlns="http://www.w3.org/2000/svg" version="1.1">

 <g>
  <title>Layer 1</title>
  <g id="layer1">
   <path stroke="#ffffff" stroke-width="1.70779" fill="#ffffff" id="path2098" d="m155.07963,365.74312c-0.62818,-0.65403 -1.14214,-15.15887 -1.14214,-32.23299l0,-31.04384l-10.46054,-10.9237c-48.35429,-50.49527 -25.50413,-135.74499 40.74266,-152.0033c53.19334,-13.05473 106.76346,30.24355 106.93541,86.431c0.0199,6.48724 2.68122,13.86522 13.47406,37.35348c15.81033,34.40772 15.82422,33.85022 -0.84415,33.85022l-12.60517,0l-0.0368,10.01987c-0.0807,21.98913 -9.88578,31.68815 -32.1113,31.76392l-11.22692,0.0383l-0.48882,13.50504l-0.48882,13.50504l-45.30266,0.46308c-24.91646,0.25469 -45.81662,-0.072 -46.44479,-0.72609l-0.00002,-0.00003zm86.23756,-19.34108l0.48883,-13.50504l15.06317,-0.93518c23.06347,-1.43186 26.04897,-4.35348 27.53546,-26.9462l0.91721,-13.94068l12.02672,-0.50973l12.02674,-0.50974l-12.44516,-27.15384c-9.41815,-20.54928 -12.44514,-28.95031 -12.44514,-34.53979c0,-53.97339 -50.04428,-95.28305 -99.26081,-81.93605c-62.35613,16.91032 -82.06156,96.39842 -35.20986,142.03011l10.61789,10.34139l0,30.55491l0,30.55488l40.09806,0l40.09807,0l0.48882,-13.50504zm131.06261,18.77704c-0.55446,-0.93408 2.09728,-5.78869 5.89277,-10.78802c26.64746,-35.09934 26.60995,-79.38419 -0.0971,-114.56193c-9.25076,-12.18488 -6.77029,-16.56767 3.49478,-6.175c29.52387,29.89089 30.26787,92.7558 1.48255,125.26977c-7.22802,8.16425 -9.02166,9.20569 -10.77309,6.25518l0.00009,0zm-37.6842,-21.11392c0,-1.04567 2.59343,-5.05578 5.76317,-8.91136c18.74328,-22.79872 18.7525,-54.58516 0.0221,-76.17094c-6.57742,-7.58011 -6.38994,-13.22065 0.29371,-8.83694c16.35699,10.72831 24.56889,42.33216 17.33534,66.71579c-4.53701,15.29387 -23.41432,37.22609 -23.41432,27.20345z"/>
  </g>
 </g>
</svg>